Coordinates
version=1
nRows=6
nColumns=107
inDegrees=yes

Units are S.I. units (second, meters, Newtons, ...)
If the header above contains a line with 'inDegrees', this indicates whether rotational values are in degrees (yes) or radians (no).

endheader
time	sternoclavicular_r2	sternoclavicular_r3	unrotscap_r3	unrotscap_r2	acromioclavicular_r2	acromioclavicular_r3	acromioclavicular_r1	unrothum_r1	unrothum_r3	unrothum_r2	elv_angle	shoulder_elv	shoulder1_r2	shoulder_rot	elbow_flexion	pro_sup	deviation	flexion	proximal_distal_r1	proximal_distal_r3	cmc_flexion	cmc_abduction	mp_flexion	ip_flexion	mcp2_flexion	mcp2_abduction	pm2_flexion	md2_flexion	mcp3_flexion	mcp3_abduction	pm3_flexion	md3_flexion	mcp4_flexion	mcp4_abduction	pm4_flexion	md4_flexion	mcp5_flexion	mcp5_abduction	pm5_flexion	md5_flexion	bicpt_tx	bicpt_ty	bicpt_tz	bicpt2_tx	bicpt2_ty	bicpt2_tz	ptpt_tx	ptpt_ty	ptpt_tz	FCUpt_tx	FCUpt_ty	FCUpt_tz	EDCpt_tx	EDCpt_ty	EDCpt_tz	APLpt_tx	APLpt_ty	APLpt_tz	FPLpt_tx	FPLpt_ty	FPLpt_tz	FPLpt2_tx	FPLpt2_ty	FPLpt2_tz	PEC1pt2_tx	PEC1pt2_ty	PEC1pt2_tz	PEC1pt3_tx	PEC1pt3_ty	PEC1pt3_tz	PEC2pt2_tx	PEC2pt2_ty	PEC2pt2_tz	PEC2pt3_tx	PEC2pt3_ty	PEC2pt3_tz	PEC3pt2_tx	PEC3pt2_ty	PEC3pt2_tz	PEC3pt3_tx	PEC3pt3_ty	PEC3pt3_tz	DELT2pt2a_tx	DELT2pt2a_ty	DELT2pt2a_tz	DELT2pt2_tx	DELT2pt2_ty	DELT2pt2_tz	LAT1pt2_tx	LAT1pt2_ty	LAT1pt2_tz	LAT1pt3_tx	LAT1pt3_ty	LAT1pt3_tz	LAT2pt2_tx	LAT2pt2_ty	LAT2pt2_tz	LAT2pt3_tx	LAT2pt3_ty	LAT2pt3_tz	LAT3pt2_tx	LAT3pt2_ty	LAT3pt2_tz	LAT3pt3_tx	LAT3pt3_ty	LAT3pt3_tz
      0.53333333	     -0.32364456	      0.13708056	     -0.13708056	      0.32364456	     -0.06553144	      0.52960204	      0.23805247	     -0.23805247	     -0.52960204	      0.06553144	     98.70055565	     76.62572538	     -1.72264967	    -22.52173058	     28.94176795	     45.62166184	      0.20452371	     -0.95908370	      0.24332953	     -0.47954185	     10.32695274	     -4.14692552	    -31.80719018	    -56.84424542	     75.96767161	     13.01763453	     86.14476320	     91.46180690	     90.93710162	      1.97157061	     80.64884614	     59.42077746	     95.12056016	    -12.79859786	     86.50951556	     49.54910598	    104.80258440	    -14.01063725	     75.72985593	      5.76130547	      0.00085730	     -0.03091717	     -0.00483431	      0.01654883	     -0.01806217	     -0.00684780	      0.00417907	     -0.06707970	     -0.00372507	      0.00835109	     -0.18337364	     -0.00041445	     -0.00547459	      0.00161379	      0.00009752	      0.00021099	      0.00008440	      0.00042199	      0.00027007	      0.00081021	      0.00045574	      0.00003227	     -0.00019893	     -0.00023871	      0.00251162	      0.00881197	      0.00613006	     -0.00821599	      0.01983757	     -0.01881589	      0.00251162	      0.00881197	      0.00613006	      0.00055341	      0.01839019	     -0.00966336	      0.00396527	      0.00490022	      0.01600985	      0.00000000	      0.00785299	      0.00000000	     -0.00719431	     -0.03324708	     -0.00647556	      0.01518910	     -0.00051062	     -0.00422262	     -0.00089397	      0.01498460	     -0.00613006	      0.00246905	      0.02162550	     -0.01787935	     -0.00600235	      0.01298381	     -0.00549151	     -0.01251555	      0.02741500	     -0.03069289	     -0.02349858	      0.01451633	     -0.00736459	     -0.01558058	      0.03167199	     -0.03835546
      0.56666667	     -0.32756218	      0.13873988	     -0.13873988	      0.32756218	     -0.06632468	      0.53601272	      0.24093403	     -0.24093403	     -0.53601272	      0.06632468	     98.03424189	     77.55325778	     -1.71102030	    -18.14310998	     28.42967685	     40.92822266	      0.21146589	     -0.99178708	      0.25038718	     -0.49589354	     10.18544003	     -3.74025979	    -31.74706332	    -57.26196137	     76.07518047	     12.97955819	     86.22762810	     89.37966363	     91.13042359	      1.80826141	     80.48177678	     58.80263352	     95.59109450	    -12.86927204	     85.83415133	     49.93853086	    105.34590187	    -14.01228271	     75.32935346	      5.75736770	      0.00084037	     -0.03085848	     -0.00482486	      0.01657516	     -0.01792306	     -0.00737034	      0.00452587	     -0.06685545	     -0.00334699	      0.00787382	     -0.18347563	     -0.00039268	     -0.00491138	      0.00141813	      0.00013952	      0.00019099	      0.00007639	      0.00038197	      0.00024446	      0.00073338	      0.00041253	      0.00003245	     -0.00019700	     -0.00023640	      0.00254203	      0.00891863	      0.00620427	     -0.00831544	      0.02007769	     -0.01904365	      0.00254203	      0.00891863	      0.00620427	      0.00056011	      0.01861280	     -0.00978034	      0.00400007	      0.00495954	      0.01609365	      0.00000000	      0.00804567	      0.00000000	     -0.00728140	     -0.03364953	     -0.00663547	      0.01268168	     -0.00037560	     -0.00268119	     -0.00090479	      0.01516598	     -0.00620427	      0.00249894	      0.02188727	     -0.01809578	     -0.00607501	      0.01314098	     -0.00555799	     -0.01266704	      0.02774686	     -0.03106441	     -0.02378302	      0.01469205	     -0.00745374	     -0.01576918	      0.03205537	     -0.03881975
      0.60000000	     -0.32493651	      0.13762777	     -0.13762777	      0.32493651	     -0.06579303	      0.53171615	      0.23900275	     -0.23900275	     -0.53171615	      0.06579303	     98.53847466	     76.93160699	     -1.71982082	    -21.17010456	     28.59181370	     43.64521862	      0.19211766	     -1.00481440	      0.23052030	     -0.50240720	     10.06921676	     -3.77157866	    -31.49255066	    -57.18393241	     75.96406012	     12.96977981	     86.21960067	     89.17222049	     91.06801669	      1.80574477	     80.56477811	     58.68497451	     95.56547889	    -12.86389205	     85.69772991	     50.37967013	    105.39482811	    -14.00941632	     75.05154941	      5.77940785	      0.00084573	     -0.03087706	     -0.00482785	      0.01656604	     -0.01796711	     -0.00707160	      0.00432511	     -0.06698527	     -0.00356586	      0.00814928	     -0.18341735	     -0.00040730	     -0.00523741	      0.00153057	      0.00011666	      0.00018254	      0.00007301	      0.00036507	      0.00023365	      0.00070094	      0.00039428	      0.00003260	     -0.00019540	     -0.00023448	      0.00252165	      0.00884714	      0.00615453	     -0.00824878	      0.01991676	     -0.01889100	      0.00252165	      0.00884714	      0.00615453	      0.00055562	      0.01846360	     -0.00970194	      0.00397678	      0.00491978	      0.01603771	      0.00000000	      0.00791627	      0.00000000	     -0.00722303	     -0.03337980	     -0.00652808	      0.01444248	     -0.00046814	     -0.00371490	     -0.00089754	      0.01504442	     -0.00615453	      0.00247891	      0.02171183	     -0.01795072	     -0.00602631	      0.01303564	     -0.00551344	     -0.01256551	      0.02752444	     -0.03081541	     -0.02359238	      0.01457428	     -0.00739399	     -0.01564277	      0.03179842	     -0.03850858
      0.63333333	     -0.32503841	      0.13767093	     -0.13767093	      0.32503841	     -0.06581367	      0.53188290	      0.23907770	     -0.23907770	     -0.53188290	      0.06581367	     98.39465760	     76.95573234	     -1.71731074	    -20.93005029	     28.86773981	     43.90042830	      0.20645979	     -0.96522966	      0.24530570	     -0.48261483	      9.86770065	     -3.70730490	    -31.31053533	    -56.32875989	     75.89966240	     13.01326725	     85.81215906	     91.58433030	     90.55126287	      1.96564322	     81.06124230	     59.63442774	     95.52900007	    -12.86749668	     85.92069966	     50.04200527	    105.09959028	    -14.00166234	     74.76027437	      5.81065852	      0.00085486	     -0.03090868	     -0.00483294	      0.01656429	     -0.01804206	     -0.00704299	      0.00430625	     -0.06699746	     -0.00358642	      0.00817528	     -0.18341177	     -0.00040838	     -0.00526804	      0.00154126	      0.00011430	      0.00020734	      0.00008294	      0.00041468	      0.00026539	      0.00079618	      0.00044785	      0.00003286	     -0.00019262	     -0.00023114	      0.00252244	      0.00884992	      0.00615646	     -0.00825137	      0.01992300	     -0.01889692	      0.00252244	      0.00884992	      0.00615646	      0.00055579	      0.01846939	     -0.00970498	      0.00397768	      0.00492133	      0.01603989	      0.00000000	      0.00792127	      0.00000000	     -0.00722529	     -0.03339027	     -0.00653223	      0.01430718	     -0.00046067	     -0.00362780	     -0.00089782	      0.01504913	     -0.00615646	      0.00247969	      0.02171864	     -0.01795635	     -0.00602820	      0.01303973	     -0.00551517	     -0.01256945	      0.02753307	     -0.03082507	     -0.02359978	      0.01457885	     -0.00739631	     -0.01564768	      0.03180840	     -0.03852065
      0.66666667	     -0.32670790	      0.13837805	     -0.13837805	      0.32670790	     -0.06615170	      0.53461481	      0.24030568	     -0.24030568	     -0.53461481	      0.06615170	     98.21595557	     77.35099980	     -1.71419180	    -19.15253003	     28.44858967	     41.86076938	      0.20363655	     -0.99790882	      0.24242253	     -0.49895441	     10.13077304	     -3.88215930	    -31.40238414	    -56.94853630	     75.80055540	     12.97814197	     86.21490801	     89.05583026	     91.12100892	      1.75914015	     80.72761308	     58.73849698	     95.89480252	    -12.86093653	     85.93813983	     49.98338952	    105.44647592	    -14.00836868	     75.02974365	      5.75933656	      0.00084099	     -0.03086064	     -0.00482520	      0.01657393	     -0.01792820	     -0.00726896	      0.00445696	     -0.06690001	     -0.00342211	      0.00796811	     -0.18345586	     -0.00039833	     -0.00502328	      0.00145647	      0.00013212	      0.00018705	      0.00007482	      0.00037410	      0.00023942	      0.00071827	      0.00040403	      0.00003253	     -0.00019625	     -0.00023551	      0.00253540	      0.00889537	      0.00618809	     -0.00829375	      0.02002533	     -0.01899398	      0.00253540	      0.00889537	      0.00618809	      0.00055865	      0.01856426	     -0.00975483	      0.00399250	      0.00494660	      0.01607555	      0.00000000	      0.00800345	      0.00000000	     -0.00726241	     -0.03356177	     -0.00660044	      0.01328242	     -0.00040605	     -0.00300970	     -0.00090243	      0.01512643	     -0.00618809	      0.00249242	      0.02183019	     -0.01804858	     -0.00605917	      0.01310671	     -0.00554349	     -0.01263401	      0.02767449	     -0.03098340	     -0.02372099	      0.01465373	     -0.00743430	     -0.01572805	      0.03197177	     -0.03871851
      0.70000000	     -0.32542473	      0.13783456	     -0.13783456	      0.32542473	     -0.06589189	      0.53251506	      0.23936186	     -0.23936186	     -0.53251506	      0.06589189	     98.32999563	     77.04719742	     -1.71618218	    -20.44353065	     28.85478364	     43.56283758	      0.21429931	     -0.95520968	      0.25324506	     -0.47760484	      9.59426241	     -3.29158056	    -30.54446114	    -55.58070635	     75.88613246	     13.00056255	     85.87751908	     91.48913692	     90.47150796	      1.80270001	     81.12698430	     59.73259315	     95.33140613	    -12.93113686	     86.01931556	     49.55957135	    105.04836838	    -13.99545239	     74.88638155	      5.72150386	      0.00085443	     -0.03090720	     -0.00483270	      0.01656654	     -0.01803854	     -0.00708079	      0.00433120	     -0.06698133	     -0.00355922	      0.00814090	     -0.18341915	     -0.00040693	     -0.00522753	      0.00152713	      0.00011740	      0.00021321	      0.00008528	      0.00042641	      0.00027291	      0.00081872	      0.00046053	      0.00003320	     -0.00018872	     -0.00022646	      0.00252544	      0.00886044	      0.00616378	     -0.00826118	      0.01994668	     -0.01891938	      0.00252544	      0.00886044	      0.00616378	      0.00055645	      0.01849134	     -0.00971652	      0.00398112	      0.00492718	      0.01604818	      0.00000000	      0.00794025	      0.00000000	     -0.00723388	     -0.03342995	     -0.00654798	      0.01403090	     -0.00044560	     -0.00345367	     -0.00089888	      0.01506702	     -0.00616378	      0.00248263	      0.02174445	     -0.01797769	     -0.00603537	      0.01305523	     -0.00552172	     -0.01258439	      0.02756580	     -0.03086171	     -0.02362783	      0.01459618	     -0.00740510	     -0.01566628	      0.03184620	     -0.03856644
